<svg id="visual" viewBox="0 0 1920 1080" width="1920" height="1080" xmlns="http://www.w3.org/2000/svg" xmlns:xlink="http://www.w3.org/1999/xlink" version="1.1"><rect x="0" y="0" width="1920" height="1080" fill="#001220"></rect><defs><linearGradient id="grad1_0" x1="43.8%" y1="100%" x2="100%" y2="0%"><stop offset="14.444444444444446%" stop-color="#68de48" stop-opacity="1"></stop><stop offset="85.55555555555554%" stop-color="#68de48" stop-opacity="1"></stop></linearGradient></defs><defs><linearGradient id="grad1_1" x1="43.8%" y1="100%" x2="100%" y2="0%"><stop offset="14.444444444444446%" stop-color="#68de48" stop-opacity="1"></stop><stop offset="85.55555555555554%" stop-color="#009a7c" stop-opacity="1"></stop></linearGradient></defs><defs><linearGradient id="grad1_2" x1="43.8%" y1="100%" x2="100%" y2="0%"><stop offset="14.444444444444446%" stop-color="#00526a" stop-opacity="1"></stop><stop offset="85.55555555555554%" stop-color="#009a7c" stop-opacity="1"></stop></linearGradient></defs><defs><linearGradient id="grad1_3" x1="43.8%" y1="100%" x2="100%" y2="0%"><stop offset="14.444444444444446%" stop-color="#00526a" stop-opacity="1"></stop><stop offset="85.55555555555554%" stop-color="#001220" stop-opacity="1"></stop></linearGradient></defs><defs><linearGradient id="grad2_0" x1="0%" y1="100%" x2="56.3%" y2="0%"><stop offset="14.444444444444446%" stop-color="#68de48" stop-opacity="1"></stop><stop offset="85.55555555555554%" stop-color="#68de48" stop-opacity="1"></stop></linearGradient></defs><defs><linearGradient id="grad2_1" x1="0%" y1="100%" x2="56.3%" y2="0%"><stop offset="14.444444444444446%" stop-color="#009a7c" stop-opacity="1"></stop><stop offset="85.55555555555554%" stop-color="#68de48" stop-opacity="1"></stop></linearGradient></defs><defs><linearGradient id="grad2_2" x1="0%" y1="100%" x2="56.3%" y2="0%"><stop offset="14.444444444444446%" stop-color="#009a7c" stop-opacity="1"></stop><stop offset="85.55555555555554%" stop-color="#00526a" stop-opacity="1"></stop></linearGradient></defs><defs><linearGradient id="grad2_3" x1="0%" y1="100%" x2="56.3%" y2="0%"><stop offset="14.444444444444446%" stop-color="#001220" stop-opacity="1"></stop><stop offset="85.55555555555554%" stop-color="#00526a" stop-opacity="1"></stop></linearGradient></defs><g transform="translate(1920, 1080)"><path d="M-648 0C-647.2 -72 -646.4 -144.1 -616.3 -200.2C-586.2 -256.4 -526.8 -296.7 -486.2 -353.3C-445.6 -409.8 -423.9 -482.6 -374.4 -515.3C-325 -548.1 -247.8 -540.9 -180.8 -556.4C-113.8 -571.8 -56.9 -609.9 0 -648L0 0Z" fill="#003048"></path><path d="M-486 0C-485.4 -54 -484.8 -108.1 -462.2 -150.2C-439.6 -192.3 -395.1 -222.5 -364.7 -264.9C-334.2 -307.3 -317.9 -361.9 -280.8 -386.5C-243.7 -411.1 -185.8 -405.7 -135.6 -417.3C-85.3 -428.9 -42.7 -457.4 0 -486L0 0Z" fill="#00767c"></path><path d="M-324 0C-323.6 -36 -323.2 -72 -308.1 -100.1C-293.1 -128.2 -263.4 -148.4 -243.1 -176.6C-222.8 -204.9 -211.9 -241.3 -187.2 -257.7C-162.5 -274.1 -123.9 -270.5 -90.4 -278.2C-56.9 -285.9 -28.4 -305 0 -324L0 0Z" fill="#00be6a"></path><path d="M-162 0C-161.8 -18 -161.6 -36 -154.1 -50.1C-146.5 -64.1 -131.7 -74.2 -121.6 -88.3C-111.4 -102.4 -106 -120.6 -93.6 -128.8C-81.2 -137 -61.9 -135.2 -45.2 -139.1C-28.4 -143 -14.2 -152.5 0 -162L0 0Z" fill="#68de48"></path></g><g transform="translate(0, 0)"><path d="M648 0C618.5 60.4 589 120.8 572.5 186C556.1 251.3 552.7 321.3 523.4 380.3C494.2 439.2 439.1 487.1 380.9 524.2C322.6 561.4 261.2 587.9 197.2 606.8C133.1 625.6 66.6 636.8 0 648L0 0Z" fill="#003048"></path><path d="M486 0C463.9 45.3 441.7 90.6 429.4 139.5C417.1 188.4 414.5 241 392.6 285.2C370.7 329.4 329.4 365.3 285.7 393.2C242 421.1 195.9 440.9 147.9 455.1C99.9 469.2 49.9 477.6 0 486L0 0Z" fill="#00767c"></path><path d="M324 0C309.2 30.2 294.5 60.4 286.3 93C278 125.6 276.3 160.7 261.7 190.1C247.1 219.6 219.6 243.5 190.4 262.1C161.3 280.7 130.6 294 98.6 303.4C66.6 312.8 33.3 318.4 0 324L0 0Z" fill="#00be6a"></path><path d="M162 0C154.6 15.1 147.2 30.2 143.1 46.5C139 62.8 138.2 80.3 130.9 95.1C123.6 109.8 109.8 121.8 95.2 131.1C80.7 140.4 65.3 147 49.3 151.7C33.3 156.4 16.6 159.2 0 162L0 0Z" fill="#68de48"></path></g></svg>