<svg id="visual" viewBox="0 0 412 915" width="412" height="915" xmlns="http://www.w3.org/2000/svg" xmlns:xlink="http://www.w3.org/1999/xlink" version="1.1"><rect x="0" y="0" width="412" height="915" fill="#001220"></rect><defs><linearGradient id="grad1_0" x1="0%" y1="100%" x2="100%" y2="0%"><stop offset="30%" stop-color="#68de48" stop-opacity="1"></stop><stop offset="70%" stop-color="#68de48" stop-opacity="1"></stop></linearGradient></defs><defs><linearGradient id="grad1_1" x1="0%" y1="100%" x2="100%" y2="0%"><stop offset="30%" stop-color="#68de48" stop-opacity="1"></stop><stop offset="70%" stop-color="#009a7c" stop-opacity="1"></stop></linearGradient></defs><defs><linearGradient id="grad1_2" x1="0%" y1="100%" x2="100%" y2="0%"><stop offset="30%" stop-color="#00526a" stop-opacity="1"></stop><stop offset="70%" stop-color="#009a7c" stop-opacity="1"></stop></linearGradient></defs><defs><linearGradient id="grad1_3" x1="0%" y1="100%" x2="100%" y2="0%"><stop offset="30%" stop-color="#00526a" stop-opacity="1"></stop><stop offset="70%" stop-color="#001220" stop-opacity="1"></stop></linearGradient></defs><defs><linearGradient id="grad2_0" x1="0%" y1="100%" x2="100%" y2="0%"><stop offset="30%" stop-color="#68de48" stop-opacity="1"></stop><stop offset="70%" stop-color="#68de48" stop-opacity="1"></stop></linearGradient></defs><defs><linearGradient id="grad2_1" x1="0%" y1="100%" x2="100%" y2="0%"><stop offset="30%" stop-color="#009a7c" stop-opacity="1"></stop><stop offset="70%" stop-color="#68de48" stop-opacity="1"></stop></linearGradient></defs><defs><linearGradient id="grad2_2" x1="0%" y1="100%" x2="100%" y2="0%"><stop offset="30%" stop-color="#009a7c" stop-opacity="1"></stop><stop offset="70%" stop-color="#00526a" stop-opacity="1"></stop></linearGradient></defs><defs><linearGradient id="grad2_3" x1="0%" y1="100%" x2="100%" y2="0%"><stop offset="30%" stop-color="#001220" stop-opacity="1"></stop><stop offset="70%" stop-color="#00526a" stop-opacity="1"></stop></linearGradient></defs><g transform="translate(412, 915)"><path d="M-247.2 0C-243.7 -24.9 -240.1 -49.9 -234 -76C-227.8 -102.2 -219 -129.5 -200 -145.3C-181 -161.1 -151.9 -165.3 -130.5 -179.6C-109.1 -193.9 -95.5 -218.2 -75.1 -231.1C-54.6 -244 -27.3 -245.6 0 -247.2L0 0Z" fill="#003048"></path><path d="M-185.4 0C-182.8 -18.7 -180.1 -37.4 -175.5 -57C-170.8 -76.6 -164.2 -97.1 -150 -109C-135.8 -120.8 -113.9 -124 -97.9 -134.7C-81.8 -145.4 -71.7 -163.6 -56.3 -173.3C-41 -183 -20.5 -184.2 0 -185.4L0 0Z" fill="#00767c"></path><path d="M-123.6 0C-121.8 -12.5 -120.1 -24.9 -117 -38C-113.9 -51.1 -109.5 -64.8 -100 -72.7C-90.5 -80.5 -75.9 -82.7 -65.2 -89.8C-54.6 -96.9 -47.8 -109.1 -37.5 -115.6C-27.3 -122 -13.7 -122.8 0 -123.6L0 0Z" fill="#00be6a"></path><path d="M-61.8 0C-60.9 -6.2 -60 -12.5 -58.5 -19C-56.9 -25.5 -54.7 -32.4 -50 -36.3C-45.3 -40.3 -38 -41.3 -32.6 -44.9C-27.3 -48.5 -23.9 -54.5 -18.8 -57.8C-13.7 -61 -6.8 -61.4 0 -61.8L0 0Z" fill="#68de48"></path></g><g transform="translate(0, 0)"><path d="M247.2 0C243.7 26.3 240.2 52.7 229.2 74.5C218.2 96.3 199.8 113.5 186.1 135.2C172.3 156.9 163.2 183 145.3 200C127.4 217 100.8 224.8 75.1 231.1C49.4 237.4 24.7 242.3 0 247.2L0 0Z" fill="#003048"></path><path d="M185.4 0C182.8 19.8 180.1 39.5 171.9 55.9C163.7 72.2 149.9 85.1 139.6 101.4C129.2 117.7 122.4 137.3 109 150C95.6 162.7 75.6 168.6 56.3 173.3C37.1 178.1 18.5 181.7 0 185.4L0 0Z" fill="#00767c"></path><path d="M123.6 0C121.8 13.2 120.1 26.3 114.6 37.2C109.1 48.1 99.9 56.8 93 67.6C86.2 78.4 81.6 91.5 72.7 100C63.7 108.5 50.4 112.4 37.5 115.6C24.7 118.7 12.4 121.2 0 123.6L0 0Z" fill="#00be6a"></path><path d="M61.8 0C60.9 6.6 60 13.2 57.3 18.6C54.6 24.1 50 28.4 46.5 33.8C43.1 39.2 40.8 45.8 36.3 50C31.9 54.2 25.2 56.2 18.8 57.8C12.4 59.4 6.2 60.6 0 61.8L0 0Z" fill="#68de48"></path></g></svg>