<svg id="visual" viewBox="0 0 1920 1080" width="1920" height="1080" xmlns="http://www.w3.org/2000/svg" xmlns:xlink="http://www.w3.org/1999/xlink" version="1.1"><rect x="0" y="0" width="1920" height="1080" fill="#001220"></rect><path d="M0 692L45.7 689.2C91.3 686.3 182.7 680.7 274.2 681.5C365.7 682.3 457.3 689.7 548.8 686.7C640.3 683.7 731.7 670.3 823 677C914.3 683.7 1005.7 710.3 1097 721.8C1188.3 733.3 1279.7 729.7 1371.2 726.5C1462.7 723.3 1554.3 720.7 1645.8 723.8C1737.3 727 1828.7 736 1874.3 740.5L1920 745L1920 1081L1874.3 1081C1828.7 1081 1737.3 1081 1645.8 1081C1554.3 1081 1462.7 1081 1371.2 1081C1279.7 1081 1188.3 1081 1097 1081C1005.7 1081 914.3 1081 823 1081C731.7 1081 640.3 1081 548.8 1081C457.3 1081 365.7 1081 274.2 1081C182.7 1081 91.3 1081 45.7 1081L0 1081Z" fill="#fa7268"></path><path d="M0 807L45.7 801.8C91.3 796.7 182.7 786.3 274.2 778.3C365.7 770.3 457.3 764.7 548.8 767.8C640.3 771 731.7 783 823 793C914.3 803 1005.7 811 1097 797.7C1188.3 784.3 1279.7 749.7 1371.2 755.5C1462.7 761.3 1554.3 807.7 1645.8 812.5C1737.3 817.3 1828.7 780.7 1874.3 762.3L1920 744L1920 1081L1874.3 1081C1828.7 1081 1737.3 1081 1645.8 1081C1554.3 1081 1462.7 1081 1371.2 1081C1279.7 1081 1188.3 1081 1097 1081C1005.7 1081 914.3 1081 823 1081C731.7 1081 640.3 1081 548.8 1081C457.3 1081 365.7 1081 274.2 1081C182.7 1081 91.3 1081 45.7 1081L0 1081Z" fill="#c95358"></path><path d="M0 889L45.7 879C91.3 869 182.7 849 274.2 840C365.7 831 457.3 833 548.8 844.5C640.3 856 731.7 877 823 870.2C914.3 863.3 1005.7 828.7 1097 819C1188.3 809.3 1279.7 824.7 1371.2 830.7C1462.7 836.7 1554.3 833.3 1645.8 831.3C1737.3 829.3 1828.7 828.7 1874.3 828.3L1920 828L1920 1081L1874.3 1081C1828.7 1081 1737.3 1081 1645.8 1081C1554.3 1081 1462.7 1081 1371.2 1081C1279.7 1081 1188.3 1081 1097 1081C1005.7 1081 914.3 1081 823 1081C731.7 1081 640.3 1081 548.8 1081C457.3 1081 365.7 1081 274.2 1081C182.7 1081 91.3 1081 45.7 1081L0 1081Z" fill="#993646"></path><path d="M0 946L45.7 948.7C91.3 951.3 182.7 956.7 274.2 945.2C365.7 933.7 457.3 905.3 548.8 906.2C640.3 907 731.7 937 823 943.2C914.3 949.3 1005.7 931.7 1097 921.5C1188.3 911.3 1279.7 908.7 1371.2 918.8C1462.7 929 1554.3 952 1645.8 963.5C1737.3 975 1828.7 975 1874.3 975L1920 975L1920 1081L1874.3 1081C1828.7 1081 1737.3 1081 1645.8 1081C1554.3 1081 1462.7 1081 1371.2 1081C1279.7 1081 1188.3 1081 1097 1081C1005.7 1081 914.3 1081 823 1081C731.7 1081 640.3 1081 548.8 1081C457.3 1081 365.7 1081 274.2 1081C182.7 1081 91.3 1081 45.7 1081L0 1081Z" fill="#6a1c32"></path><path d="M0 986L45.7 991.8C91.3 997.7 182.7 1009.3 274.2 1009.7C365.7 1010 457.3 999 548.8 1000.7C640.3 1002.3 731.7 1016.7 823 1017.3C914.3 1018 1005.7 1005 1097 1004.7C1188.3 1004.3 1279.7 1016.7 1371.2 1019.8C1462.7 1023 1554.3 1017 1645.8 1012.8C1737.3 1008.7 1828.7 1006.3 1874.3 1005.2L1920 1004L1920 1081L1874.3 1081C1828.7 1081 1737.3 1081 1645.8 1081C1554.3 1081 1462.7 1081 1371.2 1081C1279.7 1081 1188.3 1081 1097 1081C1005.7 1081 914.3 1081 823 1081C731.7 1081 640.3 1081 548.8 1081C457.3 1081 365.7 1081 274.2 1081C182.7 1081 91.3 1081 45.7 1081L0 1081Z" fill="#3e041c"></path></svg>