<svg id="visual" viewBox="0 0 1920 1080" width="1920" height="1080" xmlns="http://www.w3.org/2000/svg" xmlns:xlink="http://www.w3.org/1999/xlink" version="1.1"><rect x="0" y="0" width="1920" height="1080" fill="#001220"></rect><defs><linearGradient id="grad1_0" x1="43.8%" y1="100%" x2="100%" y2="0%"><stop offset="14.444444444444446%" stop-color="#001220" stop-opacity="1"></stop><stop offset="85.55555555555554%" stop-color="#001220" stop-opacity="1"></stop></linearGradient></defs><defs><linearGradient id="grad2_0" x1="0%" y1="100%" x2="56.3%" y2="0%"><stop offset="14.444444444444446%" stop-color="#001220" stop-opacity="1"></stop><stop offset="85.55555555555554%" stop-color="#001220" stop-opacity="1"></stop></linearGradient></defs><g transform="translate(1920, 1080)"><path d="M-540 0C-504.1 -62.1 -468.1 -124.2 -437.9 -181.4C-407.7 -238.6 -383.2 -291 -347.9 -347.9C-312.6 -404.8 -266.4 -466.1 -206.6 -498.9C-146.9 -531.7 -73.4 -535.8 0 -540L0 0Z" fill="#FBAE3C"></path></g><g transform="translate(0, 0)"><path d="M540 0C491.5 59.4 443 118.7 406.5 168.4C370.1 218.1 345.7 258.1 318.2 318.2C290.7 378.3 260.2 458.6 206.6 498.9C153.1 539.2 76.6 539.6 0 540L0 0Z" fill="#FBAE3C"></path></g></svg>